v -64.000000 16.000000 -64.000000
v 64.000000 16.000000 64.000000
v -64.000000 0.000000 64.000000
v 64.000000 0.000000 64.000000
v -64.000000 16.000000 -64.000000
v 64.000000 16.000000 64.000000
v -64.000000 16.000000 64.000000
v 64.000000 16.000000 -64.000000
v 0.000000 16.000000 -64.000000
v -64.000000 16.000000 -64.000000
v -64.000000 16.000000 0.000000
v 0.000000 16.000000 0.000000
v 64.000000 16.000000 -64.000000
v 64.000000 16.000000 0.000000
v -64.000000 16.000000 64.000000
v 0.000000 16.000000 64.000000
v 64.000000 16.000000 64.000000
v -64.000000 0.000000 -64.000000
v -64.000000 0.000000 64.000000
v 64.000000 0.000000 64.000000
v 64.000000 0.000000 -64.000000
v 64.000000 16.000000 -64.000000
v 64.000000 0.000000 -64.000000
v -64.000000 0.000000 -64.000000
v -64.000000 16.000000 64.000000
v -64.000000 -0.000000 64.000000
v -64.000000 0.000000 -64.000000
v 64.000000 0.000000 -64.000000
v 64.000000 -0.000000 64.000000
vt 1.000000 2.000000
vt 0.000000 2.000000
vt 0.000000 1.000000
vt 1.000000 1.000000
vt 2.000000 2.000000
vt 2.000000 1.000000
vt 0.000000 0.000000
vt 1.000000 0.000000
vt 2.000000 0.000000
vt 0.000000 0.000000
vt 0.500000 0.000000
vt 0.500000 1.000000
vt 0.000000 1.000000
vt 0.500000 0.000000
vt 0.000000 0.000000
vt 0.000000 1.000000
vt 0.500000 1.000000
vt 0.000000 1.000000
vt 0.500000 1.000000
vt 0.500000 0.000000
vt 0.000000 0.000000
vt 0.000000 0.000000
vt 0.500000 0.000000
vt 0.500000 1.000000
vt 0.000000 1.000000
vt 2.000000 2.000000
vt 2.000000 0.000000
vt 0.000000 0.000000
vt 0.000000 2.000000
vn 0.0000 1.0000 0.0000
vn 0.0000 0.0000 1.0000
vn 0.0000 0.0000 -1.0000
vn -1.0000 0.0000 0.0000
vn 1.0000 0.0000 0.0000
vn 0.0000 -1.0000 -0.0000
s off
usemtl F_057
f 9/1/1 10/2/1 11/3/1 12/4/1
usemtl F_057
f 13/5/1 9/1/1 12/4/1 14/6/1
usemtl F_057
f 12/4/1 11/3/1 15/7/1 16/8/1
usemtl F_057
f 14/6/1 12/4/1 16/8/1 17/9/1
usemtl D_END2
f 4/10/2 6/11/2 7/12/2 3/13/2
f 22/14/3 23/15/3 24/16/3 5/17/3
f 26/18/4 25/19/4 1/20/4 27/21/4
f 28/22/5 8/23/5 2/24/5 29/25/5
usemtl F_073
f 21/26/6 20/27/6 19/28/6 18/29/6
