# Blender v2.79 (sub 0) OBJ File: ''
# www.blender.org
v -4.000000 -1.000000 0.000000
v 4.000000 -1.000000 -0.000000
v -4.000000 -0.980786 0.195091
v 4.000000 -0.980785 0.195090
v -4.000000 -0.923880 0.382684
v 4.000000 -0.923879 0.382683
v -4.000000 -0.831470 0.555571
v 4.000000 -0.831469 0.555570
v -4.000000 -0.707107 0.707107
v 4.000000 -0.707106 0.707106
v -4.000000 -0.555570 0.831470
v 4.000000 -0.555570 0.831469
v -4.000000 -0.382684 0.923880
v 4.000000 -0.382683 0.923879
v -4.000000 -0.195091 0.980786
v 4.000000 -0.195090 0.980785
v -4.000000 -0.000000 1.000000
v 4.000000 0.000000 1.000000
v -4.000000 0.195090 0.980786
v 4.000000 0.195091 0.980785
v -4.000000 0.382683 0.923880
v 4.000000 0.382684 0.923879
v -4.000000 0.555570 0.831470
v 4.000000 0.555570 0.831469
v -4.000000 0.707106 0.707107
v 4.000000 0.707107 0.707106
v -4.000000 0.831469 0.555570
v 4.000000 0.831470 0.555570
v -4.000000 0.923879 0.382684
v 4.000000 0.923880 0.382683
v -4.000000 0.980785 0.195090
v 4.000000 0.980786 0.195090
v -4.000000 1.000000 -0.000000
v 4.000000 1.000000 -0.000001
v -4.000000 0.980785 -0.195090
v 4.000000 0.980785 -0.195091
v -4.000000 0.923879 -0.382684
v 4.000000 0.923880 -0.382684
v -4.000000 0.831469 -0.555570
v 4.000000 0.831470 -0.555571
v -4.000000 0.707106 -0.707107
v 4.000000 0.707107 -0.707108
v -4.000000 0.555569 -0.831470
v 4.000000 0.555570 -0.831470
v -4.000000 0.382682 -0.923880
v 4.000000 0.382683 -0.923880
v -4.000000 0.195089 -0.980785
v 4.000000 0.195090 -0.980786
v -4.000000 -0.000001 -1.000000
v 4.000000 -0.000001 -1.000000
v -4.000000 -0.195092 -0.980785
v 4.000000 -0.195091 -0.980785
v -4.000000 -0.382685 -0.923879
v 4.000000 -0.382684 -0.923879
v -4.000000 -0.555572 -0.831469
v 4.000000 -0.555571 -0.831469
v -4.000000 -0.707108 -0.707106
v 4.000000 -0.707107 -0.707106
v -4.000000 -0.831471 -0.555569
v 4.000000 -0.831470 -0.555569
v -4.000000 -0.923880 -0.382682
v 4.000000 -0.923880 -0.382682
v -4.000000 -0.980786 -0.195089
v 4.000000 -0.980785 -0.195089
v 6.000000 -0.441353 0.087790
v 6.000000 -0.450000 -0.000000
v 6.000000 -0.415745 0.172207
v 6.000000 -0.374161 0.250006
v 6.000000 -0.318198 0.318198
v 6.000000 -0.250006 0.374161
v 6.000000 -0.172207 0.415745
v 6.000000 -0.087790 0.441353
v 6.000000 0.000000 0.450000
v 6.000000 0.087791 0.441353
v 6.000000 0.172208 0.415745
v 6.000000 0.250007 0.374161
v 6.000000 0.318198 0.318198
v 6.000000 0.374162 0.250006
v 6.000000 0.415746 0.172207
v 6.000000 0.441354 0.087790
v 6.000000 0.450000 -0.000001
v 6.000000 0.441354 -0.087791
v 6.000000 0.415746 -0.172208
v 6.000000 0.374162 -0.250007
v 6.000000 0.318198 -0.318199
v 6.000000 0.250007 -0.374162
v 6.000000 0.172208 -0.415746
v 6.000000 0.087791 -0.441354
v 6.000000 -0.000000 -0.450000
v 6.000000 -0.087791 -0.441354
v 6.000000 -0.172208 -0.415746
v 6.000000 -0.250007 -0.374161
v 6.000000 -0.318198 -0.318198
v 6.000000 -0.374161 -0.250006
v 6.000000 -0.415746 -0.172207
v 6.000000 -0.441353 -0.087790
v -6.000000 -0.375001 0.000001
v -6.000000 -0.367795 0.073159
v -6.000000 -0.346455 0.143507
v -6.000000 -0.311802 0.208339
v -6.000000 -0.265166 0.265166
v -6.000000 -0.208339 0.311802
v -6.000000 -0.143507 0.346455
v -6.000000 -0.073160 0.367795
v -6.000000 -0.000001 0.375001
v -6.000000 0.073158 0.367795
v -6.000000 0.143506 0.346455
v -6.000000 0.208338 0.311802
v -6.000000 0.265164 0.265166
v -6.000000 0.311801 0.208339
v -6.000000 0.346454 0.143507
v -6.000000 0.367794 0.073159
v -6.000000 0.374999 0.000000
v -6.000000 0.367794 -0.073158
v -6.000000 0.346454 -0.143506
v -6.000000 0.311800 -0.208338
v -6.000000 0.265164 -0.265165
v -6.000000 0.208338 -0.311801
v -6.000000 0.143505 -0.346454
v -6.000000 0.073158 -0.367794
v -6.000000 -0.000001 -0.374999
v -6.000000 -0.073160 -0.367794
v -6.000000 -0.143507 -0.346454
v -6.000000 -0.208340 -0.311800
v -6.000000 -0.265166 -0.265164
v -6.000000 -0.311802 -0.208338
v -6.000000 -0.346456 -0.143505
v -6.000000 -0.367795 -0.073158
v 4.000000 0.000000 1.000000
v -4.000000 -0.000000 1.000000
v 6.000000 0.000000 0.450000
v -6.000000 -0.000001 0.375001
v 4.000000 -0.000001 -1.000000
v -4.000000 -0.000001 -1.000000
v 6.000000 -0.000000 -0.450000
v -6.000000 -0.000001 -0.374999
v 6.500000 0.000000 -0.000000
v 6.500000 0.000000 -0.000000
v 6.500000 0.000000 -0.000000
v 6.500000 0.000000 -0.000000
v 6.500000 0.000000 -0.000000
v 6.500000 0.000000 -0.000000
v 6.500000 0.000000 -0.000000
v 6.500000 0.000000 -0.000000
v 6.500000 0.000000 -0.000000
v 6.500000 0.000000 -0.000000
v 6.500000 0.000000 -0.000000
v 6.500000 0.000000 -0.000000
v 6.500000 0.000000 -0.000000
v 6.500000 0.000000 -0.000000
v 6.500000 0.000000 -0.000000
v 6.500000 0.000000 -0.000000
v 6.500000 0.000000 -0.000000
v 6.500000 0.000000 -0.000000
v 6.500000 0.000000 -0.000000
v 6.500000 0.000000 -0.000000
v 6.500000 0.000000 -0.000000
v 6.500000 0.000000 -0.000000
v 6.500000 0.000000 -0.000000
v 6.500000 0.000000 -0.000000
v 6.500000 0.000000 -0.000000
v 6.500000 0.000000 -0.000000
v 6.500000 0.000000 -0.000000
v 6.500000 0.000000 -0.000000
v 6.500000 0.000000 -0.000000
v 6.500000 0.000000 -0.000000
v 6.500000 0.000000 -0.000000
v 6.500000 0.000000 -0.000000
v 6.500000 0.000000 -0.000000
v 6.500000 0.000000 -0.000000
v -6.500000 -0.000001 0.000001
v -6.500000 -0.000001 0.000001
v -6.500000 -0.000001 0.000001
v -6.500000 -0.000001 0.000001
v -6.500000 -0.000001 0.000001
v -6.500000 -0.000001 0.000001
v -6.500000 -0.000001 0.000001
v -6.500000 -0.000001 0.000001
v -6.500000 -0.000001 0.000001
v -6.500000 -0.000001 0.000001
v -6.500000 -0.000001 0.000001
v -6.500000 -0.000001 0.000001
v -6.500000 -0.000001 0.000001
v -6.500000 -0.000001 0.000001
v -6.500000 -0.000001 0.000001
v -6.500000 -0.000001 0.000001
v -6.500000 -0.000001 0.000001
v -6.500000 -0.000001 0.000001
v -6.500000 -0.000001 0.000001
v -6.500000 -0.000001 0.000001
v -6.500000 -0.000001 0.000001
v -6.500000 -0.000001 0.000001
v -6.500000 -0.000001 0.000001
v -6.500000 -0.000001 0.000001
v -6.500000 -0.000001 0.000001
v -6.500000 -0.000001 0.000001
v -6.500000 -0.000001 0.000001
v -6.500000 -0.000001 0.000001
v -6.500000 -0.000001 0.000001
v -6.500000 -0.000001 0.000001
v -6.500000 -0.000001 0.000001
v -6.500000 -0.000001 0.000001
v -6.500000 -0.000001 0.000001
v -6.500000 -0.000001 0.000001
vt 0.500000 0.214286
vt 0.500000 0.785714
vt 0.562500 0.785714
vt 0.562500 0.214286
vt 0.625000 0.785714
vt 0.625000 0.214286
vt 0.687500 0.785714
vt 0.687500 0.214286
vt 0.750000 0.785714
vt 0.750000 0.214286
vt 0.812500 0.785714
vt 0.812500 0.214286
vt 0.875000 0.785714
vt 0.875000 0.214286
vt 0.937500 0.785714
vt 0.937500 0.214286
vt 1.000000 0.785714
vt 1.000000 0.214286
vt -0.000000 0.214286
vt -0.000000 0.785714
vt 0.062500 0.785714
vt 0.062500 0.214286
vt 0.125000 0.785714
vt 0.125000 0.214286
vt 0.187500 0.785714
vt 0.187500 0.214286
vt 0.250000 0.785714
vt 0.250000 0.214286
vt 0.312500 0.785714
vt 0.312500 0.214286
vt 0.375000 0.785714
vt 0.375000 0.214286
vt 0.437500 0.785714
vt 0.437500 0.214286
vt 0.500000 0.785714
vt 0.500000 0.214286
vt 0.562500 0.785714
vt 0.562500 0.214286
vt 0.625000 0.785714
vt 0.625000 0.214286
vt 0.687500 0.785714
vt 0.687500 0.214286
vt 0.750000 0.785714
vt 0.750000 0.214286
vt 0.812500 0.785714
vt 0.812500 0.214286
vt 0.875000 0.785714
vt 0.875000 0.214286
vt 0.937500 0.785714
vt 0.937500 0.214286
vt 1.000000 0.785714
vt 1.000000 0.214286
vt 0.000000 0.214286
vt 0.000000 0.785714
vt 0.062500 0.785714
vt 0.062500 0.214286
vt 0.125000 0.785714
vt 0.125000 0.214286
vt 0.187500 0.785714
vt 0.187500 0.214286
vt 0.250000 0.785714
vt 0.250000 0.214286
vt 0.312500 0.785714
vt 0.312500 0.214286
vt 0.375000 0.785714
vt 0.375000 0.214286
vt 0.812500 0.928571
vt 0.875000 0.928571
vt 0.437500 0.785714
vt 0.437500 0.214286
vt 0.062500 0.071429
vt -0.000000 0.071429
vt 0.375000 0.928571
vt 0.437500 0.928571
vt -0.000000 0.928571
vt 0.062500 0.928571
vt 0.562500 0.928571
vt 0.625000 0.928571
vt 0.125000 0.928571
vt 0.187500 0.928571
vt 0.750000 0.928571
vt 0.812500 0.928571
vt 0.312500 0.928571
vt 0.375000 0.928571
vt 0.937500 0.928571
vt 0.500000 0.928571
vt 0.562500 0.928571
vt 0.125000 0.928571
vt 0.687500 0.928571
vt 0.250000 0.928571
vt 0.875000 0.928571
vt 0.437500 0.928571
vt 1.000000 0.928571
vt 0.625000 0.928571
vt 0.187500 0.928571
vt 0.750000 0.928571
vt 0.312500 0.928571
vt 0.937500 0.928571
vt 0.500000 0.928571
vt 0.000000 0.928571
vt 0.062500 0.928571
vt 0.687500 0.928571
vt 0.250000 0.928571
vt 1.000000 0.928571
vt 0.625000 0.071429
vt 0.562500 0.071429
vt 0.187500 0.071429
vt 0.125000 0.071429
vt 0.812500 0.071429
vt 0.750000 0.071429
vt 0.375000 0.071429
vt 0.312500 0.071429
vt 0.937500 0.071429
vt 0.875000 0.071429
vt 0.562500 0.071429
vt 0.500000 0.071429
vt 0.437500 0.071429
vt 0.125000 0.071429
vt 0.687500 0.071429
vt 0.250000 0.071429
vt 0.875000 0.071429
vt 0.437500 0.071429
vt 1.000000 0.071429
vt 0.625000 0.071429
vt 0.187500 0.071429
vt 0.750000 0.071429
vt 0.312500 0.071429
vt 0.937500 0.071429
vt 0.500000 0.071429
vt 0.062500 0.071429
vt 0.000000 0.071429
vt 0.687500 0.071429
vt 0.250000 0.071429
vt 0.812500 0.071429
vt 0.375000 0.071429
vt 1.000000 0.071429
vt 0.875000 1.000000
vt 0.937500 1.000000
vt 0.062500 1.000000
vt 0.125000 1.000000
vt 1.000000 1.000000
vt 0.187500 1.000000
vt 0.000000 1.000000
vt 0.062500 1.000000
vt 0.250000 1.000000
vt 0.125000 1.000000
vt 0.312500 1.000000
vt 0.187500 1.000000
vt 0.375000 1.000000
vt 0.500000 1.000000
vt 0.562500 1.000000
vt 0.250000 1.000000
vt 0.437500 1.000000
vt 0.625000 1.000000
vt 0.312500 1.000000
vt 0.500000 1.000000
vt 0.687500 1.000000
vt 0.375000 1.000000
vt 0.562500 1.000000
vt 0.750000 1.000000
vt 0.437500 1.000000
vt 0.625000 1.000000
vt 0.812500 1.000000
vt 0.687500 1.000000
vt 0.875000 1.000000
vt 0.750000 1.000000
vt 0.937500 1.000000
vt 0.812500 1.000000
vt 1.000000 1.000000
vt -0.000000 1.000000
vt 0.125000 0.000000
vt 0.062500 0.000000
vt 0.312500 0.000000
vt 0.250000 0.000000
vt 0.187500 0.000000
vt 0.375000 0.000000
vt 0.562500 0.000000
vt 0.500000 0.000000
vt 0.250000 0.000000
vt 0.437500 0.000000
vt 0.625000 0.000000
vt 0.312500 0.000000
vt 0.500000 0.000000
vt 0.687500 0.000000
vt 0.375000 0.000000
vt 0.562500 0.000000
vt 0.750000 0.000000
vt 0.437500 0.000000
vt 0.625000 0.000000
vt 0.812500 0.000000
vt 0.687500 0.000000
vt 0.875000 0.000000
vt 0.750000 0.000000
vt 0.937500 0.000000
vt 0.812500 0.000000
vt 1.000000 0.000000
vt 0.875000 0.000000
vt 0.062500 0.000000
vt -0.000000 0.000000
vt 0.937500 0.000000
vt 0.125000 0.000000
vt 1.000000 0.000000
vt 0.187500 0.000000
vt 0.000000 0.000000
vn -0.1494 -0.9887 0.0000
vn 0.1327 -0.9911 0.0000
vn 0.1327 -0.9721 0.1934
vn -0.1494 -0.9698 0.1929
vn 0.1327 -0.9157 0.3793
vn -0.1494 -0.9135 0.3784
vn 0.1327 -0.8241 0.5506
vn -0.1494 -0.8221 0.5493
vn 0.1327 -0.7008 0.7008
vn -0.1494 -0.6991 0.6991
vn 0.1327 -0.5506 0.8241
vn -0.1494 -0.5493 0.8221
vn 0.1327 -0.3793 0.9157
vn -0.1494 -0.3784 0.9135
vn 0.1327 -0.1934 0.9721
vn -0.1494 -0.1929 0.9698
vn 0.1321 -0.0971 0.9864
vn -0.1487 -0.0969 0.9841
vn -0.1487 0.0969 0.9841
vn 0.1321 0.0971 0.9864
vn 0.1327 0.1934 0.9721
vn -0.1494 0.1929 0.9698
vn 0.1327 0.3793 0.9157
vn -0.1494 0.3784 0.9135
vn 0.1327 0.5506 0.8241
vn -0.1494 0.5493 0.8221
vn 0.1327 0.7008 0.7008
vn -0.1494 0.6991 0.6991
vn 0.1327 0.8241 0.5506
vn -0.1494 0.8221 0.5493
vn 0.1327 0.9157 0.3793
vn -0.1494 0.9135 0.3784
vn 0.1327 0.9721 0.1933
vn -0.1494 0.9698 0.1929
vn 0.1327 0.9911 0.0000
vn -0.1494 0.9887 0.0000
vn 0.1327 0.9721 -0.1934
vn -0.1494 0.9698 -0.1929
vn 0.1327 0.9157 -0.3793
vn -0.1494 0.9135 -0.3784
vn 0.1327 0.8241 -0.5506
vn -0.1494 0.8221 -0.5493
vn 0.1327 0.7008 -0.7008
vn -0.1494 0.6991 -0.6991
vn 0.1327 0.5506 -0.8241
vn -0.1494 0.5493 -0.8221
vn 0.1327 0.3793 -0.9157
vn -0.1494 0.3784 -0.9135
vn 0.1327 0.1933 -0.9721
vn -0.1494 0.1929 -0.9698
vn 0.1321 0.0971 -0.9864
vn -0.1487 0.0969 -0.9841
vn -0.1487 -0.0969 -0.9841
vn 0.1321 -0.0971 -0.9864
vn 0.1327 -0.1934 -0.9721
vn -0.1494 -0.1929 -0.9698
vn 0.1327 -0.3793 -0.9157
vn -0.1494 -0.3784 -0.9135
vn 0.1327 -0.5506 -0.8241
vn -0.1494 -0.5493 -0.8221
vn 0.1327 -0.7008 -0.7008
vn -0.1494 -0.6991 -0.6991
vn 0.1327 -0.8241 -0.5506
vn -0.1494 -0.8221 -0.5493
vn 0.1327 -0.9157 -0.3793
vn -0.1494 -0.9135 -0.3784
vn 0.4740 0.4892 -0.7321
vn 0.4740 0.3370 -0.8135
vn 0.1327 -0.9721 -0.1933
vn -0.1494 -0.9698 -0.1929
vn -0.4515 0.1740 0.8751
vn -0.4498 0.0875 0.8888
vn 0.4740 -0.8135 -0.3370
vn 0.4740 -0.8636 -0.1718
vn 0.4722 0.0864 0.8772
vn 0.4740 0.1718 0.8636
vn 0.4740 0.8636 -0.1718
vn 0.4740 0.8135 -0.3370
vn 0.4740 -0.3370 -0.8135
vn 0.4740 -0.4892 -0.7321
vn 0.4740 -0.6226 0.6226
vn 0.4740 -0.4892 0.7321
vn 0.4740 0.7321 0.4892
vn 0.4740 0.8135 0.3370
vn 0.4740 0.1718 -0.8636
vn 0.4740 -0.8805 0.0000
vn 0.4740 -0.8636 0.1718
vn 0.4740 0.3370 0.8135
vn 0.4740 0.7321 -0.4892
vn 0.4740 -0.6226 -0.6226
vn 0.4740 -0.3370 0.8135
vn 0.4740 0.8636 0.1718
vn 0.4722 0.0864 -0.8772
vn 0.4740 -0.8135 0.3370
vn 0.4740 0.4892 0.7321
vn 0.4740 0.6226 -0.6226
vn 0.4740 -0.7321 -0.4892
vn 0.4740 -0.1718 0.8636
vn 0.4740 0.8805 0.0000
vn 0.4722 -0.0864 -0.8772
vn 0.4740 -0.1718 -0.8636
vn 0.4740 -0.7321 0.4892
vn 0.4740 0.6226 0.6226
vn 0.4722 -0.0864 0.8772
vn -0.4515 0.8243 -0.3414
vn -0.4515 0.8751 -0.1740
vn -0.4515 -0.4957 -0.7419
vn -0.4515 -0.3414 -0.8243
vn -0.4515 -0.4957 0.7419
vn -0.4515 -0.6309 0.6309
vn -0.4515 0.8243 0.3414
vn -0.4515 0.7419 0.4957
vn -0.4515 0.1740 -0.8751
vn -0.4515 0.3414 -0.8243
vn -0.4515 -0.8751 0.1740
vn -0.4515 -0.8923 0.0000
vn -0.4515 -0.8751 -0.1740
vn -0.4515 0.3414 0.8243
vn -0.4515 0.7419 -0.4957
vn -0.4515 -0.6309 -0.6309
vn -0.4515 -0.3414 0.8243
vn -0.4515 0.8751 0.1740
vn -0.4498 0.0875 -0.8888
vn -0.4515 -0.8243 0.3414
vn -0.4515 0.4957 0.7419
vn -0.4515 0.6309 -0.6309
vn -0.4515 -0.7419 -0.4957
vn -0.4515 -0.1740 0.8751
vn -0.4515 0.8923 0.0000
vn -0.4515 -0.1740 -0.8751
vn -0.4498 -0.0875 -0.8888
vn -0.4515 -0.7419 0.4957
vn -0.4515 0.6309 0.6309
vn -0.4515 0.4957 -0.7419
vn -0.4515 -0.8243 -0.3414
vn -0.4498 -0.0875 0.8888
vn 0.6689 0.2844 -0.6867
vn 0.6689 0.1450 -0.7290
vn 0.6689 0.1450 0.7290
vn 0.6689 0.2844 0.6867
vn 0.6672 0.0730 -0.7413
vn 0.6689 0.4064 0.6224
vn 0.6672 -0.0730 -0.7413
vn 0.6689 -0.1450 -0.7290
vn 0.6689 0.5256 0.5256
vn 0.6689 -0.2844 -0.6867
vn 0.6689 0.6180 0.4129
vn 0.6689 -0.4213 -0.6124
vn 0.6689 0.6842 0.2905
vn 0.6689 -0.7433 0.0000
vn 0.6689 -0.7290 0.1450
vn 0.6689 -0.5256 -0.5256
vn 0.6689 0.7290 0.1450
vn 0.6689 -0.6842 0.2905
vn 0.6689 -0.6180 -0.4129
vn 0.6689 0.7433 0.0000
vn 0.6689 -0.6180 0.4129
vn 0.6689 -0.6888 -0.2793
vn 0.6689 0.7290 -0.1450
vn 0.6689 -0.5256 0.5256
vn 0.6689 -0.7290 -0.1450
vn 0.6689 0.6888 -0.2793
vn 0.6689 -0.4213 0.6124
vn 0.6689 0.6180 -0.4129
vn 0.6689 -0.2844 0.6867
vn 0.6689 0.5256 -0.5256
vn 0.6689 -0.1450 0.7290
vn 0.6689 0.4064 -0.6224
vn 0.6672 -0.0730 0.7413
vn 0.6672 0.0730 0.7413
vn -0.6000 -0.3011 -0.7411
vn -0.6000 -0.1561 -0.7846
vn -0.5999 0.6539 0.4610
vn -0.6000 0.5657 0.5657
vn -0.6000 -0.4444 -0.6652
vn -0.5999 0.7339 0.3185
vn -0.6000 -0.7851 0.1533
vn -0.6000 -0.8000 0.0000
vn -0.6000 -0.5657 -0.5657
vn -0.6000 0.7851 0.1533
vn -0.5999 -0.7435 0.2954
vn -0.5999 -0.6725 -0.4334
vn -0.6000 0.8000 0.0000
vn -0.6000 -0.6690 0.4387
vn -0.5999 -0.7467 -0.2874
vn -0.6000 0.7840 -0.1591
vn -0.6000 -0.5657 0.5657
vn -0.6000 -0.7840 -0.1591
vn -0.6000 0.7356 -0.3144
vn -0.6000 -0.4444 0.6652
vn -0.6000 0.6605 -0.4514
vn -0.6000 -0.3011 0.7411
vn -0.6000 0.5657 -0.5657
vn -0.6000 -0.1561 0.7846
vn -0.6000 0.4444 -0.6652
vn -0.5981 -0.0785 0.7975
vn -0.6000 0.3119 -0.7367
vn -0.6000 0.1561 0.7846
vn -0.5981 0.0785 0.7975
vn -0.6000 0.1561 -0.7846
vn -0.6000 0.3119 0.7367
vn -0.5981 0.0785 -0.7975
vn -0.6000 0.4444 0.6652
vn -0.5981 -0.0785 -0.7975
s 1
f 1/1/1 2/2/2 4/3/3 3/4/4
f 3/4/4 4/3/3 6/5/5 5/6/6
f 5/6/6 6/5/5 8/7/7 7/8/8
f 7/8/8 8/7/7 10/9/9 9/10/10
f 9/10/10 10/9/9 12/11/11 11/12/12
f 11/12/12 12/11/11 14/13/13 13/14/14
f 13/14/14 14/13/13 16/15/15 15/16/16
f 15/16/16 16/15/15 129/17/17 130/18/18
f 17/19/19 18/20/20 20/21/21 19/22/22
f 19/22/22 20/21/21 22/23/23 21/24/24
f 21/24/24 22/23/23 24/25/25 23/26/26
f 23/26/26 24/25/25 26/27/27 25/28/28
f 25/28/28 26/27/27 28/29/29 27/30/30
f 27/30/30 28/29/29 30/31/31 29/32/32
f 29/32/32 30/31/31 32/33/33 31/34/34
f 31/34/34 32/33/33 34/35/35 33/36/36
f 33/36/36 34/35/35 36/37/37 35/38/38
f 35/38/38 36/37/37 38/39/39 37/40/40
f 37/40/40 38/39/39 40/41/41 39/42/42
f 39/42/42 40/41/41 42/43/43 41/44/44
f 41/44/44 42/43/43 44/45/45 43/46/46
f 43/46/46 44/45/45 46/47/47 45/48/48
f 45/48/48 46/47/47 48/49/49 47/50/50
f 47/50/50 48/49/49 133/51/51 134/52/52
f 49/53/53 50/54/54 52/55/55 51/56/56
f 51/56/56 52/55/55 54/57/57 53/58/58
f 53/58/58 54/57/57 56/59/59 55/60/60
f 55/60/60 56/59/59 58/61/61 57/62/62
f 57/62/62 58/61/61 60/63/63 59/64/64
f 59/64/64 60/63/63 62/65/65 61/66/66
f 46/47/47 44/45/45 86/67/67 87/68/68
f 61/66/66 62/65/65 64/69/69 63/70/70
f 63/70/70 64/69/69 2/2/2 1/1/1
f 17/19/19 19/22/22 106/71/71 105/72/72
f 64/69/69 62/65/65 95/73/73 96/74/74
f 20/21/21 18/20/20 73/75/75 74/76/76
f 38/39/39 36/37/37 82/77/77 83/78/78
f 56/59/59 54/57/57 91/79/79 92/80/80
f 12/11/11 10/9/9 69/81/81 70/82/82
f 30/31/31 28/29/29 78/83/83 79/84/84
f 48/49/49 46/47/47 87/68/68 88/85/85
f 4/3/3 2/2/2 66/86/86 65/87/87
f 2/2/2 64/69/69 96/74/74 66/86/86
f 22/23/23 20/21/21 74/76/76 75/88/88
f 40/41/41 38/39/39 83/78/78 84/89/89
f 58/61/61 56/59/59 92/80/80 93/90/90
f 14/13/13 12/11/11 70/82/82 71/91/91
f 32/33/33 30/31/31 79/84/84 80/92/92
f 133/51/51 48/49/49 88/85/85 135/93/93
f 6/5/5 4/3/3 65/87/87 67/94/94
f 24/25/25 22/23/23 75/88/88 76/95/95
f 42/43/43 40/41/41 84/89/89 85/96/96
f 60/63/63 58/61/61 93/90/90 94/97/97
f 16/15/15 14/13/13 71/91/91 72/98/98
f 34/35/35 32/33/33 80/92/92 81/99/99
f 52/55/55 50/54/54 89/100/100 90/101/101
f 8/7/7 6/5/5 67/94/94 68/102/102
f 26/27/27 24/25/25 76/95/95 77/103/103
f 44/45/45 42/43/43 85/96/96 86/67/67
f 62/65/65 60/63/63 94/97/97 95/73/73
f 129/17/17 16/15/15 72/98/98 131/104/104
f 36/37/37 34/35/35 81/99/99 82/77/77
f 54/57/57 52/55/55 90/101/101 91/79/79
f 10/9/9 8/7/7 68/102/102 69/81/81
f 28/29/29 26/27/27 77/103/103 78/83/83
f 35/38/38 37/40/40 115/105/105 114/106/106
f 53/58/58 55/60/60 124/107/107 123/108/108
f 9/10/10 11/12/12 102/109/109 101/110/110
f 27/30/30 29/32/32 111/111/111 110/112/112
f 45/48/48 47/50/50 120/113/113 119/114/114
f 1/1/1 3/4/4 98/115/115 97/116/116
f 63/70/70 1/1/1 97/116/116 128/117/117
f 19/22/22 21/24/24 107/118/118 106/71/71
f 37/40/40 39/42/42 116/119/119 115/105/105
f 55/60/60 57/62/62 125/120/120 124/107/107
f 11/12/12 13/14/14 103/121/121 102/109/109
f 29/32/32 31/34/34 112/122/122 111/111/111
f 47/50/50 134/52/52 136/123/123 120/113/113
f 3/4/4 5/6/6 99/124/124 98/115/115
f 21/24/24 23/26/26 108/125/125 107/118/118
f 39/42/42 41/44/44 117/126/126 116/119/119
f 57/62/62 59/64/64 126/127/127 125/120/120
f 13/14/14 15/16/16 104/128/128 103/121/121
f 31/34/34 33/36/36 113/129/129 112/122/122
f 49/53/53 51/56/56 122/130/130 121/131/131
f 5/6/6 7/8/8 100/132/132 99/124/124
f 23/26/26 25/28/28 109/133/133 108/125/125
f 41/44/44 43/46/46 118/134/134 117/126/126
f 59/64/64 61/66/66 127/135/135 126/127/127
f 15/16/16 130/18/18 132/136/136 104/128/128
f 33/36/36 35/38/38 114/106/106 113/129/129
f 51/56/56 53/58/58 123/108/108 122/130/130
f 7/8/8 9/10/10 101/110/110 100/132/132
f 25/28/28 27/30/30 110/112/112 109/133/133
f 43/46/46 45/48/48 119/114/114 118/134/134
f 61/66/66 63/70/70 128/117/117 127/135/135
f 88/85/85 87/68/68 159/137/137 160/138/138
f 75/88/88 74/76/76 146/139/139 147/140/140
f 135/93/93 88/85/85 160/138/138 170/141/141
f 76/95/95 75/88/88 147/140/140 148/142/142
f 90/101/101 89/100/100 161/143/143 162/144/144
f 77/103/103 76/95/95 148/142/142 149/145/145
f 91/79/79 90/101/101 162/144/144 163/146/146
f 78/83/83 77/103/103 149/145/145 150/147/147
f 92/80/80 91/79/79 163/146/146 164/148/148
f 79/84/84 78/83/83 150/147/147 151/149/149
f 65/87/87 66/86/86 138/150/150 137/151/151
f 93/90/90 92/80/80 164/148/148 165/152/152
f 80/92/92 79/84/84 151/149/149 152/153/153
f 67/94/94 65/87/87 137/151/151 139/154/154
f 94/97/97 93/90/90 165/152/152 166/155/155
f 81/99/99 80/92/92 152/153/153 153/156/156
f 68/102/102 67/94/94 139/154/154 140/157/157
f 95/73/73 94/97/97 166/155/155 167/158/158
f 82/77/77 81/99/99 153/156/156 154/159/159
f 69/81/81 68/102/102 140/157/157 141/160/160
f 96/74/74 95/73/73 167/158/158 168/161/161
f 83/78/78 82/77/77 154/159/159 155/162/162
f 70/82/82 69/81/81 141/160/160 142/163/163
f 66/86/86 96/74/74 168/161/161 138/150/150
f 84/89/89 83/78/78 155/162/162 156/164/164
f 71/91/91 70/82/82 142/163/163 143/165/165
f 85/96/96 84/89/89 156/164/164 157/166/166
f 72/98/98 71/91/91 143/165/165 144/167/167
f 86/67/67 85/96/96 157/166/166 158/168/168
f 131/104/104 72/98/98 144/167/167 169/169/169
f 87/68/68 86/67/67 158/168/168 159/137/137
f 74/76/76 73/75/75 145/170/170 146/139/139
f 122/130/130 123/108/108 197/171/171 196/172/172
f 109/133/133 110/112/112 184/173/173 183/174/174
f 123/108/108 124/107/107 198/175/175 197/171/171
f 110/112/112 111/111/111 185/176/176 184/173/173
f 97/116/116 98/115/115 172/177/177 171/178/178
f 124/107/107 125/120/120 199/179/179 198/175/175
f 111/111/111 112/122/122 186/180/180 185/176/176
f 98/115/115 99/124/124 173/181/181 172/177/177
f 125/120/120 126/127/127 200/182/182 199/179/179
f 112/122/122 113/129/129 187/183/183 186/180/180
f 99/124/124 100/132/132 174/184/184 173/181/181
f 126/127/127 127/135/135 201/185/185 200/182/182
f 113/129/129 114/106/106 188/186/186 187/183/183
f 100/132/132 101/110/110 175/187/187 174/184/184
f 127/135/135 128/117/117 202/188/188 201/185/185
f 114/106/106 115/105/105 189/189/189 188/186/186
f 101/110/110 102/109/109 176/190/190 175/187/187
f 128/117/117 97/116/116 171/178/178 202/188/188
f 115/105/105 116/119/119 190/191/191 189/189/189
f 102/109/109 103/121/121 177/192/192 176/190/190
f 116/119/119 117/126/126 191/193/193 190/191/191
f 103/121/121 104/128/128 178/194/194 177/192/192
f 117/126/126 118/134/134 192/195/195 191/193/193
f 104/128/128 132/136/136 203/196/196 178/194/194
f 118/134/134 119/114/114 193/197/197 192/195/195
f 105/72/72 106/71/71 180/198/198 179/199/199
f 119/114/114 120/113/113 194/200/200 193/197/197
f 106/71/71 107/118/118 181/201/201 180/198/198
f 120/113/113 136/123/123 204/202/202 194/200/200
f 107/118/118 108/125/125 182/203/203 181/201/201
f 121/131/131 122/130/130 196/172/172 195/204/204
f 108/125/125 109/133/133 183/174/174 182/203/203
